<?xml version="1.0" encoding="utf-8"?>
<!-- Generator: Adobe Illustrator 21.1.0, SVG Export Plug-In . SVG Version: 6.00 Build 0)  -->
<svg version="1.1" id="Layer_1" xmlns="http://www.w3.org/2000/svg" xmlns:xlink="http://www.w3.org/1999/xlink" x="0px" y="0px"
	 viewBox="0 0 639 244" style="enable-background:new 0 0 639 244;" xml:space="preserve">
<style type="text/css">
	.st0{clip-path:url(#SVGID_2_);fill:#FFFFFF;}
</style>
<g>
	<defs>
		<rect id="SVGID_1_" x="-101" y="-142.3" width="841.9" height="595.3"/>
	</defs>
	<clipPath id="SVGID_2_">
		<use xlink:href="#SVGID_1_"  style="overflow:visible;"/>
	</clipPath>
	<path class="st0" d="M56.6,74.3v36.1c5.3,0,8.9-0.6,11-1.9c2.2-1.3,3.2-5.6,3.2-12.7v-8.9c0-5.1-1-8.5-3.1-10.1
		C65.7,75.1,62,74.3,56.6,74.3 M26.1,51.8l20,0c17,0,28.5,0.7,34.4,2c6,1.3,10.9,4.7,14.7,10.1c3.8,5.4,5.7,13.9,5.7,25.7
		c0,10.8-1.3,18-4,21.7c-2.7,3.7-7.9,5.9-15.8,6.7c7.1,1.8,11.9,4.1,14.4,7.1c2.4,3,4,5.7,4.5,8.2c0.6,2.5,0.9,9.3,0.9,20.4v36.5
		H68.4v-46c0-7.4-0.6-12-1.8-13.8c-1.1-1.8-5-2.6-10-2.6v62.4l-31,52.2V87.9C23.9,66.1,15.6,54,3.8,51.8H26.1z M250.2,124.1h-29.8
		v-20c0-5.8-0.3-9.4-1-10.8c-0.6-1.5-2-2.2-4.2-2.2c-2.5,0-4,0.9-4.7,2.6c-0.7,1.7-1,5.5-1,11.3v53.2c0,5.6,0.3,9.2,1,10.9
		c0.7,1.7,2.1,2.5,4.5,2.5c2.2,0,3.7-0.8,4.3-2.5c0.7-1.7,1.1-5.7,1.1-12v-14.4h29.8v4.5c0,11.8-0.9,20.2-2.5,25.2
		c-1.7,5-5.4,9.3-11.1,13c-5.7,3.7-12.8,5.6-21.2,5.6c-8.7,0-15.9-1.6-21.6-4.7c-5.7-3.2-9.4-7.5-11.2-13.1
		c-1.8-5.6-2.8-14-2.8-25.3v-33.5c0-8.3,0.3-14.4,0.8-18.5c0.6-4.1,2.2-8.1,5-12c2.8-3.8,6.7-6.8,11.7-9c5-2.2,10.7-3.3,17.2-3.3
		c8.8,0,16,1.7,21.7,5.1c5.7,3.4,9.5,7.6,11.2,12.7c1.8,5,2.7,12.9,2.7,23.6V124.1z M145.5,103.6c0-5.3-0.3-8.7-0.9-10.2
		c-0.6-1.5-1.8-2.3-3.6-2.3c-1.6,0-2.8,0.6-3.6,1.8c-0.8,1.2-1.2,4.7-1.2,10.6v53.5c0,6.6,0.3,10.8,0.8,12.3
		c0.6,1.6,1.8,2.3,3.8,2.3c2,0,3.3-0.9,3.9-2.7c0.6-1.8,0.8-6.1,0.8-12.8V103.6z M175.2,141.2c0,11.5-0.3,19.7-0.8,24.5
		c-0.5,4.8-2.2,9.1-5.1,13.1c-2.8,4-6.7,7-11.5,9.1c-4.9,2.1-10.5,3.2-17,3.2c-6.1,0-11.7-1-16.6-3c-4.9-2-8.8-5-11.7-9.1
		c-3-4-4.7-8.4-5.3-13.1c-0.6-4.7-0.8-13-0.8-24.8v-19.6c0-11.5,0.3-19.6,0.8-24.4c0.6-4.8,2.3-9.2,5.1-13.2c2.9-4,6.7-7,11.6-9.1
		c4.9-2.1,10.5-3.2,17-3.2c6.1,0,11.6,1,16.5,3c4.9,2,8.8,5,11.8,9c3,4,4.7,8.4,5.3,13.1c0.6,4.7,0.8,13,0.8,24.8V141.2z
		 M519.9,75.4H569v22.9h-22.3v21.7h20v21.8h-20V190h-26.7V75.4z M464,75.4h48.3v22.9h-19.9v21.7H511v21.8h-18.6v25.2h21.9V190H464
		V75.4z M419.9,95v25.5c3.3,0,5.7-0.4,7-1.3c1.4-0.9,2-3.9,2.1-9v-6.3c0-3.6-0.7-6-2-7.1C425.7,95.6,423.4,95,419.9,95 M391.5,75.4
		h19.8c14.1,0,23.6,0.5,28.5,1.6c5,1.1,9.1,3.9,12.2,8.3c3.2,4.4,4.7,11.5,4.7,21.3c0,8.9-1.1,14.9-3.3,18
		c-2.2,3.1-6.6,4.9-13.1,5.5c5.9,1.5,9.9,3.4,11.9,5.9c2,2.5,3.3,4.7,3.8,6.8c0.5,2,0.8,7.7,0.8,16.9V190H429v-38.1
		c0-6.1-0.5-9.9-1.5-11.4c-0.9-1.5-3.5-2.2-7.6-2.2V190h-28.5V75.4z M369.2,98.4V190h-27l0-91.6h-20.4l7-22.9h58.1v22.9H369.2z
		 M323.5,75.4l-17.1,51.7l29.8,62.8h-30.8l-23.2-49.1V190h-27V50.8l27-46.7v115.8l13.2-44.5H323.5z M601.5,242.4L574.3,190l-0.1-0.2
		V75.4h61.9l-7,22.9h-27.5l0,21.7h20.9l-6.6,21.8h-14.3l0,49.5V242.4z"/>
</g>
</svg>
